<svg width="24" height="24" viewBox="0 0 6.35 6.35" xml:space="preserve" xmlns="http://www.w3.org/2000/svg"><path style="opacity:.571116;fill:none;stroke-width:.211733" d="M9.891-1.736h6.35v6.35h-6.35z" transform="translate(-9.891 1.736)"/><path style="fill:#000;stroke-width:.0339572" d="M11.827 4.29c0-.011.174-.221.388-.468l.389-.447-1.357-.009-1.356-.009V-1.43h6.35v4.787l-1.354.009-1.355.009.385.441c.211.243.385.453.386.467.002.014-.555.026-1.237.026s-1.24-.009-1.24-.02zm-.658-2.715c.328-.355.608-.645.621-.645.013 0 .228.244.477.543l.483.577c.017.02.391-.33.954-.892l.924-.924.476.763c.261.419.486.762.5.763.014.001.026-.571.026-1.272V-.785h-5.128V.73c0 1.007.012 1.51.035 1.502.019-.006.303-.301.632-.656zm1.34-.993a.42.42 0 0 1-.254-.416c0-.2.077-.326.253-.416.226-.115.471-.04.61.186.13.216.053.496-.179.638a.414.414 0 0 1-.43.008z" transform="translate(-9.891 1.736)"/></svg>