<svg width="15" height="15" fill="currentColor" viewBox="0 0 6.35 6.35" xml:space="preserve" xmlns="http://www.w3.org/2000/svg">
    <path d="M27.784-4.321a.403.403 0 0 1-.244-.227c-.029-.063-.029-.072-.034-.884-.003-.452 0-.964.005-1.14l.009-.318H30.013v.63h1.34v-.63h2.502l-.007 1.159-.006 1.16-.03.054a.44.44 0 0 1-.185.177l-.061.03-2.864.003c-2.34.002-2.873 0-2.918-.014zm-.267-2.871v-1.133l.03-.067a.356.356 0 0 1 .17-.187l.07-.038h5.792l.072.04c.08.045.16.138.182.214.01.032.015.24.016.61v.56l-3.166.004c-1.741.002-3.166 0-3.166-.003zm1.773-1.935v-.32l.037-.071a.409.409 0 0 1 .238-.192c.069-.022.14-.024 1.118-.024.978 0 1.049.002 1.118.024a.409.409 0 0 1 .238.192l.036.071v.64H31.668v-.526h-1.97v.525h-.408z" transform="translate(-27.505 10.195)"/>
</svg>