<svg width="15" height="15" fill="currentColor" viewBox="0 0 6.35 6.35" xml:space="preserve" xmlns="http://www.w3.org/2000/svg">
    <path d="M50.735 6.01c-1.037-.07-1.56-.266-1.786-.666-.185-.33-.116-1.027.145-1.473.29-.496.847-.705 1.866-.702l.62.001-.465-.165c-1.095-.388-1.443-.73-1.126-1.106.134-.16.574-.385.96-.494.288-.08.279-.106-.055-.151-.427-.058-.841-.402-.841-.698 0-.375.353-.533 1.505-.675.304-.037.782-.099 1.062-.136.28-.038.574-.057.653-.043.175.032.321.178.321.32 0 .343-.592.843-1.3 1.1l-.262.094.46.026c.528.03.937.138 1.41.37.345.17.718.48.825.688.158.306.01.787-.309 1.007-.243.167-.503.235-.919.238l-.338.003.325.141c.429.186.662.326.913.548.328.289.404.442.383.775-.023.35-.158.545-.491.708-.57.279-1.991.394-3.556.29z" transform="translate(-48.643 .302)"/>
</svg>