<svg xmlns="http://www.w3.org/2000/svg" width="960" height="768" viewBox="0 0 960 768"><g fill="none" stroke="#808686" opacity="0.24" stroke-width="1" stroke-linecap="round" stroke-linejoin="round"><path opacity="0.70" stroke-width="0.85" d="M-84.80 -47.49L-107.23 -29.23"/><path opacity="0.70" stroke-width="0.85" d="M-107.23 -29.23L-66.61 -1.16"/><path opacity="0.70" stroke-width="0.85" d="M-66.61 -1.16L-72.19 35.07"/><path opacity="0.70" stroke-width="0.85" d="M-72.19 35.07L-98.61 41.32"/><circle cx="-84.80" cy="-47.49" r="1.68" fill="#808686" stroke="none"/><circle cx="-107.23" cy="-29.23" r="1.46" fill="#808686" stroke="none"/><circle cx="-66.61" cy="-1.16" r="1.13" fill="#808686" stroke="none"/><circle cx="-72.19" cy="35.07" r="1.54" fill="#808686" stroke="none"/><circle cx="-98.61" cy="41.32" r="1.03" fill="#808686" stroke="none"/><path opacity="0.70" stroke-width="0.85" d="M-84.80 720.51L-107.23 738.77"/><path opacity="0.70" stroke-width="0.85" d="M-107.23 738.77L-66.61 766.84"/><path opacity="0.70" stroke-width="0.85" d="M-66.61 766.84L-72.19 803.07"/><path opacity="0.70" stroke-width="0.85" d="M-72.19 803.07L-98.61 809.32"/><circle cx="-84.80" cy="720.51" r="1.63" fill="#808686" stroke="none"/><circle cx="-107.23" cy="738.77" r="1.47" fill="#808686" stroke="none"/><circle cx="-66.61" cy="766.84" r="1.64" fill="#808686" stroke="none"/><circle cx="-72.19" cy="803.07" r="1.30" fill="#808686" stroke="none"/><circle cx="-98.61" cy="809.32" r="0.95" fill="#808686" stroke="none"/><path opacity="0.70" stroke-width="0.85" d="M875.20 -47.49L852.77 -29.23"/><path opacity="0.70" stroke-width="0.85" d="M852.77 -29.23L893.39 -1.16"/><path opacity="0.70" stroke-width="0.85" d="M893.39 -1.16L887.81 35.07"/><path opacity="0.70" stroke-width="0.85" d="M887.81 35.07L861.39 41.32"/><circle cx="875.20" cy="-47.49" r="1.66" fill="#808686" stroke="none"/><path opacity="0.75" d="M872.20 -47.49h6M875.20 -50.49v6"/><circle cx="852.77" cy="-29.23" r="1.14" fill="#808686" stroke="none"/><circle cx="893.39" cy="-1.16" r="1.23" fill="#808686" stroke="none"/><circle cx="887.81" cy="35.07" r="1.04" fill="#808686" stroke="none"/><circle cx="861.39" cy="41.32" r="1.20" fill="#808686" stroke="none"/><path opacity="0.70" stroke-width="0.85" d="M875.20 720.51L852.77 738.77"/><path opacity="0.70" stroke-width="0.85" d="M852.77 738.77L893.39 766.84"/><path opacity="0.70" stroke-width="0.85" d="M893.39 766.84L887.81 803.07"/><path opacity="0.70" stroke-width="0.85" d="M887.81 803.07L861.39 809.32"/><circle cx="875.20" cy="720.51" r="1.44" fill="#808686" stroke="none"/><path opacity="0.75" d="M872.20 720.51h6M875.20 717.51v6"/><circle cx="852.77" cy="738.77" r="1.41" fill="#808686" stroke="none"/><circle cx="893.39" cy="766.84" r="1.67" fill="#808686" stroke="none"/><circle cx="887.81" cy="803.07" r="0.94" fill="#808686" stroke="none"/><circle cx="861.39" cy="809.32" r="1.06" fill="#808686" stroke="none"/><path opacity="0.70" stroke-width="0.85" d="M382.54 12.74L375.68 53.72"/><path opacity="0.70" stroke-width="0.85" d="M375.68 53.72L329.65 35.79"/><path opacity="0.70" stroke-width="0.85" d="M329.65 35.79L338.36 75.30"/><path opacity="0.70" stroke-width="0.85" d="M299.80 63.03L281.97 81.23"/><path opacity="0.70" stroke-width="0.85" d="M375.68 53.72L299.80 63.03"/><circle cx="382.54" cy="12.74" r="1.40" fill="#808686" stroke="none"/><circle cx="375.68" cy="53.72" r="1.11" fill="#808686" stroke="none"/><circle cx="329.65" cy="35.79" r="1.47" fill="#808686" stroke="none"/><circle cx="338.36" cy="75.30" r="0.93" fill="#808686" stroke="none"/><circle cx="299.80" cy="63.03" r="0.99" fill="#808686" stroke="none"/><circle cx="281.97" cy="81.23" r="1.17" fill="#808686" stroke="none"/><path opacity="0.70" stroke-width="0.85" d="M382.54 780.74L375.68 821.72"/><path opacity="0.70" stroke-width="0.85" d="M375.68 821.72L329.65 803.79"/><path opacity="0.70" stroke-width="0.85" d="M329.65 803.79L338.36 843.30"/><path opacity="0.70" stroke-width="0.85" d="M299.80 831.03L281.97 849.23"/><path opacity="0.70" stroke-width="0.85" d="M375.68 821.72L299.80 831.03"/><circle cx="382.54" cy="780.74" r="1.46" fill="#808686" stroke="none"/><circle cx="375.68" cy="821.72" r="1.53" fill="#808686" stroke="none"/><circle cx="329.65" cy="803.79" r="0.90" fill="#808686" stroke="none"/><circle cx="338.36" cy="843.30" r="0.85" fill="#808686" stroke="none"/><circle cx="299.80" cy="831.03" r="1.25" fill="#808686" stroke="none"/><circle cx="281.97" cy="849.23" r="0.97" fill="#808686" stroke="none"/><path opacity="0.70" stroke-width="0.85" d="M333.47 610.11L337.76 583.99"/><path opacity="0.70" stroke-width="0.85" d="M337.76 583.99L371.40 570.51"/><path opacity="0.70" stroke-width="0.85" d="M371.40 570.51L378.53 545.24"/><circle cx="333.47" cy="610.11" r="1.54" fill="#808686" stroke="none"/><circle cx="337.76" cy="583.99" r="1.08" fill="#808686" stroke="none"/><circle cx="371.40" cy="570.51" r="1.61" fill="#808686" stroke="none"/><circle cx="378.53" cy="545.24" r="1.68" fill="#808686" stroke="none"/><path opacity="0.70" stroke-width="0.85" d="M122.96 392.09L121.98 355.75"/><path opacity="0.70" stroke-width="0.85" d="M121.98 355.75L104.61 350.98"/><path opacity="0.70" stroke-width="0.85" d="M104.61 350.98L82.43 356.77"/><path opacity="0.70" stroke-width="0.85" d="M82.43 356.77L71.34 338.44"/><circle cx="122.96" cy="392.09" r="1.06" fill="#808686" stroke="none"/><circle cx="121.98" cy="355.75" r="1.54" fill="#808686" stroke="none"/><circle cx="104.61" cy="350.98" r="1.56" fill="#808686" stroke="none"/><circle cx="82.43" cy="356.77" r="0.95" fill="#808686" stroke="none"/><circle cx="71.34" cy="338.44" r="1.14" fill="#808686" stroke="none"/><path opacity="0.70" stroke-width="0.85" d="M1082.96 392.09L1081.98 355.75"/><path opacity="0.70" stroke-width="0.85" d="M1081.98 355.75L1064.61 350.98"/><path opacity="0.70" stroke-width="0.85" d="M1064.61 350.98L1042.43 356.77"/><path opacity="0.70" stroke-width="0.85" d="M1042.43 356.77L1031.34 338.44"/><circle cx="1082.96" cy="392.09" r="1.00" fill="#808686" stroke="none"/><path opacity="0.75" d="M1079.96 392.09h6M1082.96 389.09v6"/><circle cx="1081.98" cy="355.75" r="1.13" fill="#808686" stroke="none"/><circle cx="1064.61" cy="350.98" r="0.87" fill="#808686" stroke="none"/><circle cx="1042.43" cy="356.77" r="1.49" fill="#808686" stroke="none"/><circle cx="1031.34" cy="338.44" r="1.37" fill="#808686" stroke="none"/><path opacity="0.70" stroke-width="0.85" d="M253.78 222.01L217.33 239.12"/><path opacity="0.70" stroke-width="0.85" d="M217.33 239.12L259.03 260.68"/><path opacity="0.70" stroke-width="0.85" d="M259.03 260.68L240.59 282.73"/><path opacity="0.70" stroke-width="0.85" d="M240.59 282.73L274.02 316.26"/><circle cx="253.78" cy="222.01" r="1.07" fill="#808686" stroke="none"/><path opacity="0.75" d="M250.78 222.01h6M253.78 219.01v6"/><circle cx="217.33" cy="239.12" r="0.89" fill="#808686" stroke="none"/><circle cx="259.03" cy="260.68" r="1.60" fill="#808686" stroke="none"/><circle cx="240.59" cy="282.73" r="1.28" fill="#808686" stroke="none"/><circle cx="274.02" cy="316.26" r="1.63" fill="#808686" stroke="none"/><path opacity="0.70" stroke-width="0.85" d="M106.13 -48.28L126.63 -28.90"/><path opacity="0.70" stroke-width="0.85" d="M126.63 -28.90L128.00 21.55"/><path opacity="0.70" stroke-width="0.85" d="M128.00 21.55L178.18 -26.31"/><path opacity="0.70" stroke-width="0.85" d="M178.18 -26.31L179.04 20.84"/><circle cx="106.13" cy="-48.28" r="1.28" fill="#808686" stroke="none"/><path opacity="0.75" d="M103.13 -48.28h6M106.13 -51.28v6"/><circle cx="126.63" cy="-28.90" r="1.27" fill="#808686" stroke="none"/><circle cx="128.00" cy="21.55" r="1.56" fill="#808686" stroke="none"/><circle cx="178.18" cy="-26.31" r="1.17" fill="#808686" stroke="none"/><circle cx="179.04" cy="20.84" r="1.05" fill="#808686" stroke="none"/><path opacity="0.70" stroke-width="0.85" d="M106.13 719.72L126.63 739.10"/><path opacity="0.70" stroke-width="0.85" d="M126.63 739.10L128.00 789.55"/><path opacity="0.70" stroke-width="0.85" d="M128.00 789.55L178.18 741.69"/><path opacity="0.70" stroke-width="0.85" d="M178.18 741.69L179.04 788.84"/><circle cx="106.13" cy="719.72" r="1.11" fill="#808686" stroke="none"/><circle cx="126.63" cy="739.10" r="1.65" fill="#808686" stroke="none"/><circle cx="128.00" cy="789.55" r="1.24" fill="#808686" stroke="none"/><circle cx="178.18" cy="741.69" r="1.60" fill="#808686" stroke="none"/><circle cx="179.04" cy="788.84" r="1.67" fill="#808686" stroke="none"/><path opacity="0.70" stroke-width="0.85" d="M-89.12 257.07L-78.88 233.38"/><path opacity="0.70" stroke-width="0.85" d="M-78.88 233.38L-38.66 231.63"/><path opacity="0.70" stroke-width="0.85" d="M-38.66 231.63L-45.54 200.13"/><path opacity="0.70" stroke-width="0.85" d="M-28.97 184.88L-28.40 175.58"/><path opacity="0.70" stroke-width="0.85" d="M-78.88 233.38L-28.97 184.88"/><circle cx="-89.12" cy="257.07" r="1.44" fill="#808686" stroke="none"/><path opacity="0.75" d="M-92.12 257.07h6M-89.12 254.07v6"/><circle cx="-78.88" cy="233.38" r="1.06" fill="#808686" stroke="none"/><circle cx="-38.66" cy="231.63" r="0.91" fill="#808686" stroke="none"/><circle cx="-45.54" cy="200.13" r="0.88" fill="#808686" stroke="none"/><circle cx="-28.97" cy="184.88" r="1.68" fill="#808686" stroke="none"/><circle cx="-28.40" cy="175.58" r="1.62" fill="#808686" stroke="none"/><path opacity="0.70" stroke-width="0.85" d="M870.88 257.07L881.12 233.38"/><path opacity="0.70" stroke-width="0.85" d="M881.12 233.38L921.34 231.63"/><path opacity="0.70" stroke-width="0.85" d="M921.34 231.63L914.46 200.13"/><path opacity="0.70" stroke-width="0.85" d="M931.03 184.88L931.60 175.58"/><path opacity="0.70" stroke-width="0.85" d="M881.12 233.38L931.03 184.88"/><circle cx="870.88" cy="257.07" r="1.02" fill="#808686" stroke="none"/><path opacity="0.75" d="M867.88 257.07h6M870.88 254.07v6"/><circle cx="881.12" cy="233.38" r="0.96" fill="#808686" stroke="none"/><circle cx="921.34" cy="231.63" r="1.39" fill="#808686" stroke="none"/><circle cx="914.46" cy="200.13" r="1.12" fill="#808686" stroke="none"/><circle cx="931.03" cy="184.88" r="1.16" fill="#808686" stroke="none"/><circle cx="931.60" cy="175.58" r="1.60" fill="#808686" stroke="none"/><path opacity="0.70" stroke-width="0.85" d="M563.63 144.65L516.38 119.94"/><path opacity="0.70" stroke-width="0.85" d="M516.38 119.94L515.56 144.40"/><path opacity="0.70" stroke-width="0.85" d="M515.56 144.40L489.92 146.73"/><path opacity="0.70" stroke-width="0.85" d="M489.92 146.73L467.00 152.14"/><circle cx="563.63" cy="144.65" r="1.16" fill="#808686" stroke="none"/><path opacity="0.75" d="M560.63 144.65h6M563.63 141.65v6"/><circle cx="516.38" cy="119.94" r="1.31" fill="#808686" stroke="none"/><circle cx="515.56" cy="144.40" r="1.31" fill="#808686" stroke="none"/><circle cx="489.92" cy="146.73" r="1.53" fill="#808686" stroke="none"/><circle cx="467.00" cy="152.14" r="1.53" fill="#808686" stroke="none"/><path opacity="0.70" stroke-width="0.85" d="M689.01 468.01L711.71 481.77"/><path opacity="0.70" stroke-width="0.85" d="M711.71 481.77L733.55 443.49"/><path opacity="0.70" stroke-width="0.85" d="M733.55 443.49L749.38 446.92"/><path opacity="0.70" stroke-width="0.85" d="M749.38 446.92L774.65 458.15"/><circle cx="689.01" cy="468.01" r="1.15" fill="#808686" stroke="none"/><path opacity="0.75" d="M686.01 468.01h6M689.01 465.01v6"/><circle cx="711.71" cy="481.77" r="1.66" fill="#808686" stroke="none"/><circle cx="733.55" cy="443.49" r="1.43" fill="#808686" stroke="none"/><circle cx="749.38" cy="446.92" r="0.95" fill="#808686" stroke="none"/><circle cx="774.65" cy="458.15" r="1.58" fill="#808686" stroke="none"/><path opacity="0.70" stroke-width="0.85" d="M655.45 642.43L665.03 614.30"/><path opacity="0.70" stroke-width="0.85" d="M665.03 614.30L664.49 563.00"/><path opacity="0.70" stroke-width="0.85" d="M664.49 563.00L592.07 535.99"/><circle cx="655.45" cy="642.43" r="1.68" fill="#808686" stroke="none"/><path opacity="0.75" d="M652.45 642.43h6M655.45 639.43v6"/><circle cx="665.03" cy="614.30" r="1.61" fill="#808686" stroke="none"/><circle cx="664.49" cy="563.00" r="1.54" fill="#808686" stroke="none"/><circle cx="592.07" cy="535.99" r="1.18" fill="#808686" stroke="none"/><path opacity="0.70" stroke-width="0.85" d="M172.01 615.48L199.24 598.34"/><path opacity="0.70" stroke-width="0.85" d="M199.24 598.34L181.67 569.94"/><path opacity="0.70" stroke-width="0.85" d="M181.67 569.94L199.58 550.18"/><circle cx="172.01" cy="615.48" r="1.69" fill="#808686" stroke="none"/><circle cx="199.24" cy="598.34" r="1.43" fill="#808686" stroke="none"/><circle cx="181.67" cy="569.94" r="1.55" fill="#808686" stroke="none"/><circle cx="199.58" cy="550.18" r="1.00" fill="#808686" stroke="none"/><path opacity="0.70" stroke-width="0.85" d="M144.99 175.55L127.37 185.76"/><path opacity="0.70" stroke-width="0.85" d="M127.37 185.76L118.05 184.82"/><path opacity="0.70" stroke-width="0.85" d="M118.05 184.82L126.71 135.63"/><path opacity="0.70" stroke-width="0.85" d="M89.99 172.32L101.55 131.92"/><path opacity="0.70" stroke-width="0.85" d="M101.55 131.92L83.81 150.42"/><path opacity="0.70" stroke-width="0.85" d="M127.37 185.76L89.99 172.32"/><circle cx="144.99" cy="175.55" r="1.00" fill="#808686" stroke="none"/><path opacity="0.75" d="M141.99 175.55h6M144.99 172.55v6"/><circle cx="127.37" cy="185.76" r="1.18" fill="#808686" stroke="none"/><circle cx="118.05" cy="184.82" r="1.52" fill="#808686" stroke="none"/><circle cx="126.71" cy="135.63" r="1.01" fill="#808686" stroke="none"/><circle cx="89.99" cy="172.32" r="0.92" fill="#808686" stroke="none"/><circle cx="101.55" cy="131.92" r="0.97" fill="#808686" stroke="none"/><circle cx="83.81" cy="150.42" r="0.87" fill="#808686" stroke="none"/><path opacity="0.70" stroke-width="0.85" d="M697.96 160.31L722.27 142.78"/><path opacity="0.70" stroke-width="0.85" d="M722.27 142.78L726.73 112.30"/><path opacity="0.70" stroke-width="0.85" d="M726.73 112.30L731.03 94.98"/><path opacity="0.70" stroke-width="0.85" d="M731.03 94.98L760.32 81.99"/><circle cx="697.96" cy="160.31" r="1.04" fill="#808686" stroke="none"/><path opacity="0.75" d="M694.96 160.31h6M697.96 157.31v6"/><circle cx="722.27" cy="142.78" r="0.94" fill="#808686" stroke="none"/><circle cx="726.73" cy="112.30" r="1.57" fill="#808686" stroke="none"/><circle cx="731.03" cy="94.98" r="1.51" fill="#808686" stroke="none"/><circle cx="760.32" cy="81.99" r="0.90" fill="#808686" stroke="none"/><path opacity="0.70" stroke-width="0.85" d="M335.71 430.84L310.20 433.72"/><path opacity="0.70" stroke-width="0.85" d="M310.20 433.72L277.01 468.35"/><path opacity="0.70" stroke-width="0.85" d="M277.01 468.35L251.38 463.16"/><circle cx="335.71" cy="430.84" r="0.89" fill="#808686" stroke="none"/><circle cx="310.20" cy="433.72" r="1.19" fill="#808686" stroke="none"/><circle cx="277.01" cy="468.35" r="1.46" fill="#808686" stroke="none"/><circle cx="251.38" cy="463.16" r="1.45" fill="#808686" stroke="none"/><path opacity="0.70" stroke-width="0.85" d="M590.68 -23.34L617.51 -26.58"/><path opacity="0.70" stroke-width="0.85" d="M617.51 -26.58L649.22 -2.93"/><path opacity="0.70" stroke-width="0.85" d="M649.22 -2.93L666.48 -2.36"/><path opacity="0.70" stroke-width="0.85" d="M666.48 -2.36L677.42 -40.18"/><circle cx="590.68" cy="-23.34" r="1.05" fill="#808686" stroke="none"/><path opacity="0.75" d="M587.68 -23.34h6M590.68 -26.34v6"/><circle cx="617.51" cy="-26.58" r="1.07" fill="#808686" stroke="none"/><circle cx="649.22" cy="-2.93" r="1.05" fill="#808686" stroke="none"/><circle cx="666.48" cy="-2.36" r="1.10" fill="#808686" stroke="none"/><circle cx="677.42" cy="-40.18" r="1.63" fill="#808686" stroke="none"/><path opacity="0.70" stroke-width="0.85" d="M590.68 744.66L617.51 741.42"/><path opacity="0.70" stroke-width="0.85" d="M617.51 741.42L649.22 765.07"/><path opacity="0.70" stroke-width="0.85" d="M649.22 765.07L666.48 765.64"/><path opacity="0.70" stroke-width="0.85" d="M666.48 765.64L677.42 727.82"/><circle cx="590.68" cy="744.66" r="1.49" fill="#808686" stroke="none"/><path opacity="0.75" d="M587.68 744.66h6M590.68 741.66v6"/><circle cx="617.51" cy="741.42" r="1.10" fill="#808686" stroke="none"/><circle cx="649.22" cy="765.07" r="1.07" fill="#808686" stroke="none"/><circle cx="666.48" cy="765.64" r="1.45" fill="#808686" stroke="none"/><circle cx="677.42" cy="727.82" r="1.16" fill="#808686" stroke="none"/><path opacity="0.70" stroke-width="0.85" d="M501.63 376.11L472.88 339.74"/><path opacity="0.70" stroke-width="0.85" d="M472.88 339.74L491.28 302.10"/><path opacity="0.70" stroke-width="0.85" d="M491.28 302.10L471.39 272.67"/><circle cx="501.63" cy="376.11" r="1.44" fill="#808686" stroke="none"/><path opacity="0.75" d="M498.63 376.11h6M501.63 373.11v6"/><circle cx="472.88" cy="339.74" r="1.32" fill="#808686" stroke="none"/><circle cx="491.28" cy="302.10" r="1.24" fill="#808686" stroke="none"/><circle cx="471.39" cy="272.67" r="1.57" fill="#808686" stroke="none"/><path opacity="0.70" stroke-width="0.85" d="M834.65 632.45L826.97 600.72"/><path opacity="0.70" stroke-width="0.85" d="M826.97 600.72L830.58 571.05"/><path opacity="0.70" stroke-width="0.85" d="M830.58 571.05L823.61 540.36"/><circle cx="834.65" cy="632.45" r="1.57" fill="#808686" stroke="none"/><circle cx="826.97" cy="600.72" r="1.50" fill="#808686" stroke="none"/><circle cx="830.58" cy="571.05" r="1.28" fill="#808686" stroke="none"/><circle cx="823.61" cy="540.36" r="1.35" fill="#808686" stroke="none"/><path opacity="0.70" stroke-width="0.85" d="M12.48 595.88L35.94 608.14"/><path opacity="0.70" stroke-width="0.85" d="M35.94 608.14L-1.82 664.33"/><path opacity="0.70" stroke-width="0.85" d="M-1.82 664.33L60.73 631.25"/><path opacity="0.70" stroke-width="0.85" d="M60.73 631.25L61.71 663.56"/><circle cx="12.48" cy="595.88" r="0.91" fill="#808686" stroke="none"/><path opacity="0.75" d="M9.48 595.88h6M12.48 592.88v6"/><circle cx="35.94" cy="608.14" r="0.93" fill="#808686" stroke="none"/><circle cx="-1.82" cy="664.33" r="1.19" fill="#808686" stroke="none"/><circle cx="60.73" cy="631.25" r="1.36" fill="#808686" stroke="none"/><circle cx="61.71" cy="663.56" r="1.48" fill="#808686" stroke="none"/><path opacity="0.70" stroke-width="0.85" d="M972.48 595.88L995.94 608.14"/><path opacity="0.70" stroke-width="0.85" d="M995.94 608.14L958.18 664.33"/><path opacity="0.70" stroke-width="0.85" d="M958.18 664.33L1020.73 631.25"/><path opacity="0.70" stroke-width="0.85" d="M1020.73 631.25L1021.71 663.56"/><circle cx="972.48" cy="595.88" r="1.15" fill="#808686" stroke="none"/><circle cx="995.94" cy="608.14" r="1.13" fill="#808686" stroke="none"/><circle cx="958.18" cy="664.33" r="1.55" fill="#808686" stroke="none"/><circle cx="1020.73" cy="631.25" r="1.10" fill="#808686" stroke="none"/><circle cx="1021.71" cy="663.56" r="1.24" fill="#808686" stroke="none"/><path opacity="0.70" stroke-width="0.85" d="M-19.77 455.03L-33.08 429.07"/><path opacity="0.70" stroke-width="0.85" d="M-33.08 429.07L-59.99 421.38"/><path opacity="0.70" stroke-width="0.85" d="M-59.99 421.38L-77.27 436.84"/><path opacity="0.70" stroke-width="0.85" d="M-77.27 436.84L-94.38 450.38"/><circle cx="-19.77" cy="455.03" r="1.04" fill="#808686" stroke="none"/><circle cx="-33.08" cy="429.07" r="1.20" fill="#808686" stroke="none"/><circle cx="-59.99" cy="421.38" r="1.55" fill="#808686" stroke="none"/><circle cx="-77.27" cy="436.84" r="1.61" fill="#808686" stroke="none"/><circle cx="-94.38" cy="450.38" r="1.34" fill="#808686" stroke="none"/><path opacity="0.70" stroke-width="0.85" d="M940.23 455.03L926.92 429.07"/><path opacity="0.70" stroke-width="0.85" d="M926.92 429.07L900.01 421.38"/><path opacity="0.70" stroke-width="0.85" d="M900.01 421.38L882.73 436.84"/><path opacity="0.70" stroke-width="0.85" d="M882.73 436.84L865.62 450.38"/><circle cx="940.23" cy="455.03" r="1.17" fill="#808686" stroke="none"/><circle cx="926.92" cy="429.07" r="1.53" fill="#808686" stroke="none"/><circle cx="900.01" cy="421.38" r="1.49" fill="#808686" stroke="none"/><circle cx="882.73" cy="436.84" r="1.33" fill="#808686" stroke="none"/><circle cx="865.62" cy="450.38" r="1.59" fill="#808686" stroke="none"/><circle cx="571.17" cy="705.29" r="0.46" fill="#808686" stroke="none" opacity="0.68"/><circle cx="114.56" cy="629.88" r="0.69" fill="#808686" stroke="none" opacity="0.84"/><circle cx="868.86" cy="532.33" r="0.79" fill="#808686" stroke="none" opacity="0.46"/><circle cx="669.02" cy="265.12" r="0.47" fill="#808686" stroke="none" opacity="0.46"/><circle cx="414.26" cy="654.28" r="0.54" fill="#808686" stroke="none" opacity="0.64"/><circle cx="87.53" cy="218.24" r="0.63" fill="#808686" stroke="none" opacity="0.85"/><circle cx="393.00" cy="682.59" r="0.47" fill="#808686" stroke="none" opacity="0.84"/><circle cx="697.42" cy="657.27" r="0.47" fill="#808686" stroke="none" opacity="0.78"/><circle cx="711.45" cy="510.89" r="0.94" fill="#808686" stroke="none" opacity="0.72"/><circle cx="778.42" cy="429.18" r="0.78" fill="#808686" stroke="none" opacity="0.85"/><circle cx="312.63" cy="259.71" r="0.99" fill="#808686" stroke="none" opacity="0.73"/><circle cx="936.98" cy="172.47" r="0.74" fill="#808686" stroke="none" opacity="0.69"/><circle cx="82.67" cy="69.59" r="0.77" fill="#808686" stroke="none" opacity="0.90"/><circle cx="465.13" cy="589.47" r="0.58" fill="#808686" stroke="none" opacity="0.75"/><circle cx="59.25" cy="541.53" r="0.74" fill="#808686" stroke="none" opacity="0.47"/><circle cx="696.81" cy="0.76" r="0.88" fill="#808686" stroke="none" opacity="0.74"/><circle cx="225.21" cy="511.34" r="0.90" fill="#808686" stroke="none" opacity="0.65"/><circle cx="161.67" cy="591.10" r="0.49" fill="#808686" stroke="none" opacity="0.71"/><circle cx="45.12" cy="61.80" r="0.72" fill="#808686" stroke="none" opacity="0.71"/><circle cx="405.86" cy="304.47" r="0.49" fill="#808686" stroke="none" opacity="0.50"/><circle cx="693.12" cy="218.91" r="0.56" fill="#808686" stroke="none" opacity="0.63"/><circle cx="936.01" cy="604.39" r="0.64" fill="#808686" stroke="none" opacity="0.65"/><circle cx="248.89" cy="469.79" r="0.64" fill="#808686" stroke="none" opacity="0.72"/><circle cx="547.43" cy="719.12" r="0.81" fill="#808686" stroke="none" opacity="0.53"/><circle cx="136.74" cy="574.56" r="0.90" fill="#808686" stroke="none" opacity="0.56"/><circle cx="282.97" cy="177.73" r="0.80" fill="#808686" stroke="none" opacity="0.88"/><circle cx="893.09" cy="293.21" r="0.83" fill="#808686" stroke="none" opacity="0.67"/><circle cx="504.30" cy="471.48" r="0.55" fill="#808686" stroke="none" opacity="0.52"/><circle cx="146.16" cy="376.41" r="0.68" fill="#808686" stroke="none" opacity="0.67"/><circle cx="25.05" cy="318.44" r="0.79" fill="#808686" stroke="none" opacity="0.72"/><circle cx="293.02" cy="141.81" r="0.53" fill="#808686" stroke="none" opacity="0.53"/><circle cx="729.64" cy="616.11" r="0.49" fill="#808686" stroke="none" opacity="0.61"/><circle cx="590.69" cy="695.40" r="0.48" fill="#808686" stroke="none" opacity="0.70"/><circle cx="870.42" cy="240.03" r="0.78" fill="#808686" stroke="none" opacity="0.74"/><circle cx="423.48" cy="326.60" r="0.88" fill="#808686" stroke="none" opacity="0.62"/><circle cx="57.21" cy="479.04" r="0.47" fill="#808686" stroke="none" opacity="0.57"/><circle cx="125.67" cy="729.91" r="0.49" fill="#808686" stroke="none" opacity="0.64"/><circle cx="546.67" cy="104.46" r="0.82" fill="#808686" stroke="none" opacity="0.78"/><circle cx="375.64" cy="114.65" r="0.62" fill="#808686" stroke="none" opacity="0.85"/><circle cx="270.72" cy="477.76" r="0.48" fill="#808686" stroke="none" opacity="0.57"/><circle cx="28.71" cy="641.81" r="0.59" fill="#808686" stroke="none" opacity="0.79"/><circle cx="836.92" cy="476.72" r="0.73" fill="#808686" stroke="none" opacity="0.56"/><circle cx="898.40" cy="369.88" r="0.82" fill="#808686" stroke="none" opacity="0.54"/><circle cx="635.71" cy="382.58" r="0.85" fill="#808686" stroke="none" opacity="0.69"/><circle cx="376.40" cy="28.58" r="0.99" fill="#808686" stroke="none" opacity="0.81"/><circle cx="943.43" cy="728.41" r="0.62" fill="#808686" stroke="none" opacity="0.57"/><circle cx="856.27" cy="193.01" r="0.55" fill="#808686" stroke="none" opacity="0.52"/><circle cx="92.25" cy="767.36" r="0.93" fill="#808686" stroke="none" opacity="0.47"/><circle cx="307.72" cy="90.41" r="0.52" fill="#808686" stroke="none" opacity="0.49"/><circle cx="194.28" cy="541.29" r="0.72" fill="#808686" stroke="none" opacity="0.81"/><circle cx="23.52" cy="483.98" r="0.78" fill="#808686" stroke="none" opacity="0.71"/><circle cx="468.27" cy="20.88" r="0.57" fill="#808686" stroke="none" opacity="0.79"/><circle cx="824.54" cy="701.36" r="0.71" fill="#808686" stroke="none" opacity="0.88"/><circle cx="30.66" cy="570.53" r="0.78" fill="#808686" stroke="none" opacity="0.55"/><circle cx="352.53" cy="666.23" r="0.99" fill="#808686" stroke="none" opacity="0.61"/><circle cx="837.29" cy="634.49" r="0.59" fill="#808686" stroke="none" opacity="0.78"/><circle cx="743.69" cy="366.86" r="0.95" fill="#808686" stroke="none" opacity="0.88"/><circle cx="531.83" cy="428.27" r="0.92" fill="#808686" stroke="none" opacity="0.86"/><circle cx="843.01" cy="359.90" r="0.79" fill="#808686" stroke="none" opacity="0.76"/><circle cx="395.92" cy="337.77" r="0.70" fill="#808686" stroke="none" opacity="0.79"/><circle cx="904.08" cy="178.78" r="0.49" fill="#808686" stroke="none" opacity="0.78"/><circle cx="798.33" cy="472.29" r="0.82" fill="#808686" stroke="none" opacity="0.50"/><circle cx="609.84" cy="314.04" r="0.84" fill="#808686" stroke="none" opacity="0.85"/><circle cx="465.07" cy="213.94" r="0.96" fill="#808686" stroke="none" opacity="0.88"/><circle cx="886.11" cy="134.72" r="0.82" fill="#808686" stroke="none" opacity="0.73"/><circle cx="879.43" cy="283.66" r="0.84" fill="#808686" stroke="none" opacity="0.68"/><circle cx="327.70" cy="459.74" r="0.94" fill="#808686" stroke="none" opacity="0.49"/><circle cx="740.24" cy="748.23" r="0.88" fill="#808686" stroke="none" opacity="0.69"/><circle cx="757.64" cy="681.88" r="0.95" fill="#808686" stroke="none" opacity="0.58"/><circle cx="341.89" cy="80.01" r="0.77" fill="#808686" stroke="none" opacity="0.65"/><circle cx="537.66" cy="344.56" r="0.78" fill="#808686" stroke="none" opacity="0.75"/><circle cx="417.22" cy="264.40" r="0.57" fill="#808686" stroke="none" opacity="0.84"/><circle cx="896.96" cy="39.51" r="0.68" fill="#808686" stroke="none" opacity="0.47"/><circle cx="627.16" cy="196.15" r="0.84" fill="#808686" stroke="none" opacity="0.49"/><circle cx="462.90" cy="523.56" r="0.74" fill="#808686" stroke="none" opacity="0.71"/><circle cx="623.18" cy="757.94" r="0.80" fill="#808686" stroke="none" opacity="0.74"/><circle cx="285.78" cy="417.89" r="0.56" fill="#808686" stroke="none" opacity="0.87"/><circle cx="255.97" cy="476.97" r="0.74" fill="#808686" stroke="none" opacity="0.50"/><circle cx="190.47" cy="492.07" r="0.85" fill="#808686" stroke="none" opacity="0.46"/><circle cx="442.14" cy="715.26" r="0.63" fill="#808686" stroke="none" opacity="0.59"/><circle cx="853.76" cy="578.67" r="0.50" fill="#808686" stroke="none" opacity="0.74"/><circle cx="925.29" cy="180.57" r="0.72" fill="#808686" stroke="none" opacity="0.70"/><circle cx="16.73" cy="20.27" r="0.58" fill="#808686" stroke="none" opacity="0.62"/><circle cx="40.08" cy="369.49" r="0.96" fill="#808686" stroke="none" opacity="0.63"/><circle cx="480.13" cy="611.99" r="0.60" fill="#808686" stroke="none" opacity="0.63"/><circle cx="411.25" cy="262.84" r="0.55" fill="#808686" stroke="none" opacity="0.63"/><circle cx="25.22" cy="158.82" r="0.57" fill="#808686" stroke="none" opacity="0.75"/><circle cx="533.06" cy="77.77" r="0.55" fill="#808686" stroke="none" opacity="0.46"/><circle cx="929.81" cy="704.61" r="0.64" fill="#808686" stroke="none" opacity="0.48"/><circle cx="40.09" cy="351.09" r="0.46" fill="#808686" stroke="none" opacity="0.60"/><circle cx="466.46" cy="543.29" r="0.79" fill="#808686" stroke="none" opacity="0.78"/><circle cx="114.15" cy="268.36" r="0.97" fill="#808686" stroke="none" opacity="0.45"/><circle cx="463.86" cy="105.99" r="0.86" fill="#808686" stroke="none" opacity="0.55"/><circle cx="835.38" cy="123.35" r="0.75" fill="#808686" stroke="none" opacity="0.79"/><circle cx="535.62" cy="417.62" r="0.66" fill="#808686" stroke="none" opacity="0.56"/><circle cx="313.43" cy="260.61" r="0.91" fill="#808686" stroke="none" opacity="0.87"/><circle cx="451.80" cy="99.91" r="0.81" fill="#808686" stroke="none" opacity="0.46"/><circle cx="102.90" cy="154.25" r="0.45" fill="#808686" stroke="none" opacity="0.53"/><circle cx="715.22" cy="293.42" r="0.90" fill="#808686" stroke="none" opacity="0.74"/><circle cx="256.37" cy="524.66" r="0.68" fill="#808686" stroke="none" opacity="0.54"/><circle cx="833.27" cy="555.13" r="0.45" fill="#808686" stroke="none" opacity="0.72"/><circle cx="7.86" cy="17.34" r="0.87" fill="#808686" stroke="none" opacity="0.78"/><circle cx="672.15" cy="623.01" r="0.83" fill="#808686" stroke="none" opacity="0.82"/><circle cx="767.13" cy="709.31" r="0.98" fill="#808686" stroke="none" opacity="0.50"/><circle cx="175.59" cy="339.30" r="0.46" fill="#808686" stroke="none" opacity="0.90"/></g></svg>
