
<svg
   width="15"
   height="15"
   fill="currentColor"
   viewBox="0 0 6.35 6.35"
   xml:space="preserve"
   xmlns="http://www.w3.org/2000/svg">
    <path
   d="M 1.8438151 0 C 1.5760339 0 1.3586938 0.19490797 1.2972852 0.44483073 L 2.3134505 0.44483073 L 2.3134505 0.44565755 L 5.2445378 0.44565755 C 5.3071326 0.44565755 5.3652539 0.49818115 5.3652539 0.58787109 L 5.3652539 4.8947917 C 5.3652539 4.9135797 5.3624464 4.9298174 5.3578125 4.9452279 L 5.3578125 5.4702604 C 5.6188263 5.4142812 5.8109115 5.170539 5.8109115 4.8947917 L 5.8109115 0.58787109 C 5.8109115 0.27337204 5.5617421 6.2665859e-17 5.2445378 0 L 1.8438151 0 z M 0.96903646 0.86733724 C 0.65183173 0.86733724 0.40266276 1.1407089 0.40266276 1.4552083 L 0.40266276 5.7621289 C 0.40266276 6.0766283 0.65183173 6.35 0.96903646 6.35 L 4.3689323 6.35 C 4.6861371 6.35 4.9336523 6.0766283 4.9336523 5.7621289 L 4.9336523 1.4552083 C 4.9336523 1.1407089 4.6861371 0.86733724 4.3689323 0.86733724 L 0.96903646 0.86733724 z M 0.96903646 1.3146484 L 4.3689323 1.3146484 C 4.4315272 1.3146484 4.4879948 1.3655184 4.4879948 1.4552083 L 4.4879948 5.7621289 C 4.4879948 5.8518188 4.4315268 5.9043424 4.3689323 5.9043424 L 0.96903646 5.9043424 C 0.90644162 5.9043424 0.84997396 5.851819 0.84997396 5.7621289 L 0.84997396 1.4552083 C 0.84997396 1.3655184 0.9064416 1.3146484 0.96903646 1.3146484 z M 1.4353646 2.54 L 1.4353646 2.9633333 L 3.9009505 2.9633333 L 3.9009505 2.54 L 1.4353646 2.54 z M 1.4353646 3.3866667 L 1.4353646 3.81 L 3.9009505 3.81 L 3.9009505 3.3866667 L 1.4353646 3.3866667 z M 1.4353646 4.2333333 L 1.4353646 4.6566667 L 3.9009505 4.6566667 L 3.9009505 4.2333333 L 1.4353646 4.2333333 z " />
</svg>