<svg
   width="15"
   height="15"
   fill="currentColor"
   viewBox="0 0 6.35 6.35"
   xml:space="preserve"
   xmlns="http://www.w3.org/2000/svg">
    <path d="M 3.039401 0 C 2.5329673 0 2.1174935 0.41712745 2.1174935 0.9235612 L 2.1174935 3.310599 C 2.1174935 3.8170327 2.5329673 4.2325065 3.039401 4.2325065 L 5.4280924 4.2325065 C 5.9345261 4.2325065 6.35 3.8170327 6.35 3.310599 L 6.35 0.9235612 C 6.35 0.41712745 5.9345261 0 5.4280924 0 L 3.039401 0 z M 3.039401 0.56058594 L 5.4280924 0.56058594 C 5.6336297 0.56058594 5.7894141 0.71802388 5.7894141 0.9235612 L 5.7894141 3.310599 C 5.7894141 3.5161363 5.6336297 3.6719206 5.4280924 3.6719206 L 3.039401 3.6719206 C 2.8338637 3.6719206 2.6780794 3.5161363 2.6780794 3.310599 L 2.6780794 0.9235612 C 2.6780794 0.71802388 2.8338637 0.56058594 3.039401 0.56058594 z M 0.9235612 2.1174935 C 0.41712795 2.1174935 0 2.5329678 0 3.039401 L 0 5.4280924 C 0 5.9345256 0.41712795 6.35 0.9235612 6.35 L 3.310599 6.35 C 3.8170322 6.35 4.2325065 5.9345256 4.2325065 5.4280924 L 4.2325065 4.6930469 L 3.6719206 4.6930469 L 3.6719206 5.4280924 C 3.6719206 5.6336295 3.5161361 5.7894141 3.310599 5.7894141 L 0.9235612 5.7894141 C 0.71802408 5.7894141 0.56058594 5.6336295 0.56058594 5.4280924 L 0.56058594 3.039401 C 0.56058594 2.8338639 0.71802408 2.6780794 0.9235612 2.6780794 L 1.6561263 2.6780794 L 1.6561263 2.1174935 L 0.9235612 2.1174935 z " />
</svg>
