<svg
   width="15"
   height="15"
   fill="currentColor"
   viewBox="0 0 6.35 6.35"
   xml:space="preserve"
   xmlns="http://www.w3.org/2000/svg">
    <path d="M 3.1758268 0 A 0.38590801 0.38590801 0 0 0 2.7888737 0.38695312 L 2.7888737 3.4428906 L 1.8438151 2.5375195 A 0.38590801 0.38590801 0 0 0 1.5684831 2.4300326 A 0.38590801 0.38590801 0 0 0 1.2989388 2.5490951 A 0.38590801 0.38590801 0 0 0 1.3088607 3.0939714 L 2.9079362 4.626901 A 0.3859466 0.3859466 0 0 0 2.936875 4.6500521 A 0.38590801 0.38590801 0 0 0 2.964987 4.6715495 A 0.3859466 0.3859466 0 0 0 2.9658138 4.6723763 A 0.3859466 0.3859466 0 0 0 2.9798698 4.6798177 A 0.38590801 0.38590801 0 0 0 3.1005859 4.7269466 A 0.3859466 0.3859466 0 0 0 3.1014128 4.7269466 A 0.38590801 0.38590801 0 0 0 3.1758268 4.734388 A 0.38590801 0.38590801 0 0 0 3.3180404 4.706276 A 0.3859466 0.3859466 0 0 0 3.3188672 4.706276 A 0.38590801 0.38590801 0 0 0 3.3841862 4.6715495 A 0.38590801 0.38590801 0 0 0 3.441237 4.626901 L 3.4478516 4.6211133 A 0.38590801 0.38590801 0 0 0 3.4495052 4.6186328 L 5.0411393 3.0939714 A 0.38590801 0.38590801 0 0 0 5.0527148 2.5490951 A 0.38590801 0.38590801 0 0 0 4.5061849 2.5375195 L 3.5602995 3.4453711 L 3.5602995 0.38695312 A 0.38590801 0.38590801 0 0 0 3.1758268 0 z M 0.39439453 3.9629622 A 0.38590801 0.38590801 0 0 0 0.0074414062 4.3499154 L 0.0074414062 5.9647005 A 0.3859466 0.3859466 0 0 0 0.39439453 6.35 L 5.9547786 6.35 A 0.3859466 0.3859466 0 0 0 6.3417318 5.9647005 L 6.3417318 4.3499154 A 0.38590801 0.38590801 0 0 0 5.9547786 3.9629622 A 0.38590801 0.38590801 0 0 0 5.570306 4.3499154 L 5.570306 5.5777474 L 0.77969401 5.5777474 L 0.77969401 4.3499154 A 0.38590801 0.38590801 0 0 0 0.39439453 3.9629622 z " />
</svg>
