<svg width="15" height="15" fill="currentColor" viewBox="0 0 6.35 6.35" xml:space="preserve" xmlns="http://www.w3.org/2000/svg">
   <path d="M 3.2060748,1.5e-8 A 0.51883897,0.51883897 0 0 0 2.6870544,0.51878862 0.51883897,0.51883897 0 0 0 3.2060748,1.0378092 0.51883897,0.51883897 0 0 0 3.7248662,0.51878862 0.51883897,0.51883897 0 0 0 3.2060748,1.5e-8 Z M 1.2893178,0.78595202 A 0.51883897,0.51883897 0 0 0 0.77052942,1.3049725 0.51883897,0.51883897 0 0 0 1.2893178,1.823761 0.51883897,0.51883897 0 0 0 1.8081082,1.3049725 0.51883897,0.51883897 0 0 0 1.2893178,0.78595202 Z m 3.7713643,0 A 0.51883897,0.51883897 0 0 0 4.5418918,1.3049725 0.51883897,0.51883897 0 0 0 5.0606821,1.823761 0.51883897,0.51883897 0 0 0 5.5794705,1.3049725 0.51883897,0.51883897 0 0 0 5.0606821,0.78595202 Z M 3.1905394,1.5099832 A 0.51883897,0.51883897 0 0 0 2.671748,2.0290038 0.51883897,0.51883897 0 0 0 3.1905394,2.5477923 0.51883897,0.51883897 0 0 0 3.7093269,2.0290038 0.51883897,0.51883897 0 0 0 3.1905394,1.5099832 Z M 0.57294082,2.6252512 A 0.51883897,0.51883897 0 0 0 0.05415045,3.1440397 0.51883897,0.51883897 0 0 0 0.57294082,3.6628284 0.51883897,0.51883897 0 0 0 1.0919612,3.1440397 0.51883897,0.51883897 0 0 0 0.57294082,2.6252512 Z m 5.20388828,0 A 0.51883897,0.51883897 0 0 0 5.2580388,3.1440397 0.51883897,0.51883897 0 0 0 5.7768291,3.6628284 0.51883897,0.51883897 0 0 0 6.2958495,3.1440397 0.51883897,0.51883897 0 0 0 5.7768291,2.6252512 Z M 2.0288874,2.6795186 A 0.51883897,0.51883897 0 0 0 1.5100999,3.1983073 0.51883897,0.51883897 0 0 0 2.0288874,3.7170956 0.51883897,0.51883897 0 0 0 2.5476749,3.1983073 0.51883897,0.51883897 0 0 0 2.0288874,2.6795186 Z m 2.2922251,0 A 0.51883897,0.51883897 0 0 0 3.8023251,3.1983073 0.51883897,0.51883897 0 0 0 4.3211125,3.7170956 0.51883897,0.51883897 0 0 0 4.8399,3.1983073 0.51883897,0.51883897 0 0 0 4.3211125,2.6795186 Z M 3.1905394,3.8022076 A 0.51883897,0.51883897 0 0 0 2.671748,4.3209962 0.51883897,0.51883897 0 0 0 3.1905394,4.8400167 0.51883897,0.51883897 0 0 0 3.7093269,4.3209962 0.51883897,0.51883897 0 0 0 3.1905394,3.8022076 Z M 1.2893178,4.5262391 A 0.51883897,0.51883897 0 0 0 0.77052942,5.0452593 0.51883897,0.51883897 0 0 0 1.2893178,5.564048 0.51883897,0.51883897 0 0 0 1.8081082,5.0452593 0.51883897,0.51883897 0 0 0 1.2893178,4.5262391 Z m 3.7713643,0 A 0.51883897,0.51883897 0 0 0 4.5418918,5.0452593 0.51883897,0.51883897 0 0 0 5.0606821,5.564048 0.51883897,0.51883897 0 0 0 5.5794705,5.0452593 0.51883897,0.51883897 0 0 0 5.0606821,4.5262391 Z M 3.2060748,5.3124227 A 0.51883897,0.51883897 0 0 0 2.6870544,5.8312114 0.51883897,0.51883897 0 0 0 3.2060748,6.35 0.51883897,0.51883897 0 0 0 3.7248662,5.8312114 0.51883897,0.51883897 0 0 0 3.2060748,5.3124227 Z" />
</svg>