<svg
   width="15"
   height="15"
   fill="currentColor"
   viewBox="0 0 6.35 6.35"
   xml:space="preserve"
   xmlns="http://www.w3.org/2000/svg">
    <path d="M 1.2997656 0.90619792 C 1.273099 0.90619792 1.2503125 0.94514479 1.2303125 1.0244336 C 1.1953125 1.1621458 0.97305287 1.923084 0.56472005 3.3064648 C 0.18805385 4.5855188 2.2204338e-17 5.2522995 0 5.3065495 C -1.2533172e-16 5.3670594 0.12781933 5.3975 0.38281901 5.3975 C 0.70615192 5.3975 0.89583339 5.3885611 0.9525 5.3718685 C 0.99749992 5.3572626 1.0357618 5.2639321 1.0674284 5.0907487 C 1.1024284 4.9008726 1.1341797 4.78927 1.162513 4.7558854 C 1.1808463 4.7371068 1.3314522 4.7277734 1.6147852 4.7277734 C 2.0347846 4.7277734 2.2586719 4.7346648 2.2853385 4.7492708 C 2.3170052 4.7701363 2.3609636 4.9308457 2.4176302 5.2313086 C 2.4326302 5.3105972 2.4684506 5.3572625 2.5251172 5.3718685 C 2.5934505 5.3885611 2.7464977 5.3975 2.9848307 5.3975 C 3.2448304 5.3975 3.4003321 5.3885611 3.450332 5.3718685 C 3.4919987 5.3572625 3.5123437 5.3317044 3.5123437 5.2941471 C 3.5123438 5.2378103 3.3145242 4.5633112 2.9178581 3.2717383 C 2.5228585 1.9885116 2.2843229 1.2377342 2.2026562 1.0186458 C 2.1759896 0.94978976 2.1466797 0.91529297 2.115013 0.91529297 C 2.0716798 0.91529297 2.0057356 0.91934912 1.9174023 0.92769531 C 1.8307358 0.93395531 1.7647916 0.93679036 1.7197917 0.93679036 C 1.673125 0.93679036 1.6022981 0.93234027 1.5072982 0.92190755 C 1.413965 0.91147483 1.3447656 0.90619792 1.2997656 0.90619792 z M 4.8476628 2.2638411 C 4.4709965 2.2638411 4.1738408 2.4164383 3.9571745 2.7210742 C 3.7488414 3.0152774 3.6446354 3.4032484 3.6446354 3.8852409 C 3.6446354 4.3025504 3.7455863 4.6613017 3.9472526 4.9617643 C 4.1605857 5.2830927 4.4300591 5.4438021 4.7550586 5.4438021 C 4.9683916 5.4438021 5.1686656 5.3265286 5.355332 5.0907487 C 5.3769987 5.0636234 5.3940886 5.0453512 5.4074219 5.0370052 C 5.4224219 5.0390917 5.4346289 5.1011938 5.4446289 5.2222135 C 5.4562956 5.3411468 5.4782813 5.3999805 5.5099479 5.3999805 C 5.7766143 5.3999805 6.0135223 5.3906471 6.2201888 5.3718685 C 6.2785221 5.3656089 6.307832 5.3213851 6.307832 5.2379232 C 6.307832 5.0793455 6.299681 4.8407034 6.284681 4.5235482 C 6.269681 4.206393 6.2623568 3.9681836 6.2623568 3.8075195 C 6.2623568 3.386037 6.2892253 2.9862915 6.3425586 2.6086263 C 6.3475586 2.573155 6.35 2.5508265 6.35 2.5424805 C 6.35 2.5216152 6.3377929 2.5053904 6.312793 2.4928711 C 6.2411264 2.4636599 6.1222589 2.4279422 5.9572591 2.3862109 C 5.783926 2.3423936 5.6666992 2.3208919 5.6050326 2.3208919 C 5.5783659 2.3208919 5.5547526 2.3716133 5.5347526 2.4738542 C 5.5164193 2.5740084 5.5001432 2.6243359 5.4851432 2.6243359 C 5.4801432 2.6243359 5.4744466 2.619059 5.4677799 2.6086263 C 5.3161135 2.3791061 5.1093292 2.2638411 4.8476628 2.2638411 z M 1.7396354 2.4424349 C 1.7746354 2.5258968 1.8300027 2.7182707 1.905 3.0187305 C 1.9816665 3.3296261 2.0199284 3.5195554 2.0199284 3.5884115 C 2.0199284 3.6071901 2.0183008 3.6218004 2.0149674 3.6322331 C 2.0033008 3.6656177 1.9422394 3.6818424 1.8322396 3.6818424 C 1.7139064 3.6818424 1.6292447 3.6802213 1.5775781 3.6760547 C 1.4775782 3.6718807 1.4270964 3.6507734 1.4270964 3.6132161 C 1.4270964 3.5568793 1.4726955 3.3657293 1.5626953 3.0402279 C 1.6460286 2.7335054 1.7046355 2.5342431 1.7396354 2.4424349 z M 4.9749935 3.212207 C 5.1183266 3.212207 5.2339259 3.2706469 5.3222591 3.3874935 C 5.412259 3.5022536 5.4578581 3.6483531 5.4578581 3.8257096 C 5.4578581 4.0051527 5.412259 4.1536937 5.3222591 4.2705404 C 5.2322592 4.3853004 5.1166599 4.4425195 4.9749935 4.4425195 C 4.8416604 4.4425195 4.7285025 4.382465 4.6351693 4.2614453 C 4.541836 4.1404256 4.4946094 3.99472 4.4946094 3.8257096 C 4.4946094 3.6462665 4.5393947 3.4997731 4.6277279 3.385013 C 4.7160611 3.2702529 4.8316603 3.212207 4.9749935 3.212207 z " />
</svg>
