<svg
   width="15"
   height="15"
   fill="currentColor"
   viewBox="0 0 6.35 6.35"
   xml:space="preserve"
   xmlns="http://www.w3.org/2000/svg">
    <path d="M 3.9770182 0 A 0.33151773 0.33151773 0 0 0 3.6479427 0.3356901 A 0.33151773 0.33151773 0 0 0 3.9770182 0.66476562 L 5.2172526 0.66476562 L 3.7438542 2.1381641 A 0.33151773 0.33151773 0 0 0 3.7438542 2.6061458 A 0.33151773 0.33151773 0 0 0 4.2143164 2.6061458 L 5.6877148 1.1327474 L 5.6877148 2.3754622 A 0.33151773 0.33151773 0 0 0 6.0209245 2.7045378 A 0.33151773 0.33151773 0 0 0 6.35 2.3754622 L 6.35 0.3356901 A 0.33155089 0.33155089 0 0 0 6.35 0.33486328 A 0.33155089 0.33155089 0 0 0 6.35 0.33403646 A 0.33155089 0.33155089 0 0 0 6.35 0.33320964 A 0.33151773 0.33151773 0 0 0 6.35 0.33238281 A 0.33151773 0.33151773 0 0 0 6.35 0.33155599 A 0.33151773 0.33151773 0 0 0 6.35 0.33072917 A 0.33151773 0.33151773 0 0 0 6.35 0.32990234 A 0.33151773 0.33151773 0 0 0 6.35 0.32907552 A 0.33155089 0.33155089 0 0 0 6.3433854 0.2670638 A 0.33155089 0.33155089 0 0 0 6.3251953 0.20587891 A 0.33155089 0.33155089 0 0 0 6.2954297 0.15048177 A 0.33151773 0.33151773 0 0 0 6.2954297 0.14965495 A 0.33151773 0.33151773 0 0 0 6.2954297 0.14882812 A 0.33155089 0.33155089 0 0 0 6.2540885 0.1008724 A 0.33151773 0.33151773 0 0 0 6.2540885 0.10004557 A 0.33151773 0.33151773 0 0 0 6.2540885 0.09921875 A 0.33151773 0.33151773 0 0 0 6.2540885 0.098391927 A 0.33151773 0.33151773 0 0 0 6.2061328 0.05953125 A 0.33151773 0.33151773 0 0 0 6.1581771 0.032246094 A 0.33155089 0.33155089 0 0 0 6.149082 0.027285156 A 0.33151773 0.33151773 0 0 0 6.1127018 0.015709635 A 0.33155089 0.33155089 0 0 0 6.0854167 0.0066145833 A 0.33151773 0.33151773 0 0 0 6.0829362 0.0066145833 A 0.33155089 0.33155089 0 0 0 6.0209245 0 A 0.33151773 0.33151773 0 0 0 6.018444 0 L 3.9770182 0 z M 0.32907552 3.6454622 A 0.33151773 0.33151773 0 0 0 0 3.9745378 L 0 6.0143099 A 0.33155089 0.33155089 0 0 0 0 6.0167904 A 0.33151773 0.33151773 0 0 0 0 6.0209245 A 0.33155089 0.33155089 0 0 0 0.0066145833 6.0829362 A 0.33155089 0.33155089 0 0 0 0.024804687 6.1441211 A 0.33155089 0.33155089 0 0 0 0.054570312 6.1995182 A 0.33151773 0.33151773 0 0 0 0.054570312 6.2011719 A 0.33155089 0.33155089 0 0 0 0.095911458 6.2491276 A 0.33151773 0.33151773 0 0 0 0.095911458 6.2516081 A 0.33151773 0.33151773 0 0 0 0.14386719 6.2904687 A 0.33151773 0.33151773 0 0 0 0.19182292 6.3177539 A 0.33155089 0.33155089 0 0 0 0.20091797 6.3227148 A 0.33151773 0.33151773 0 0 0 0.23729818 6.3342904 A 0.33155089 0.33155089 0 0 0 0.26458333 6.3433854 A 0.33151773 0.33151773 0 0 0 0.2670638 6.3433854 A 0.33155089 0.33155089 0 0 0 0.32907552 6.35 A 0.33151773 0.33151773 0 0 0 0.33155599 6.35 L 2.3729818 6.35 A 0.33151773 0.33151773 0 0 0 2.7020573 6.0143099 A 0.33151773 0.33151773 0 0 0 2.3729818 5.6852344 L 1.1327474 5.6852344 L 2.6061458 4.2118359 A 0.33151773 0.33151773 0 0 0 2.6061458 3.7438542 A 0.33151773 0.33151773 0 0 0 2.1356836 3.7438542 L 0.66228516 5.2172526 L 0.66228516 3.9745378 A 0.33151773 0.33151773 0 0 0 0.32907552 3.6454622 z " />
</svg>
