<svg
   width="15"
   height="15"
   fill="currentColor"
   viewBox="0 0 6.35 6.35"
   xml:space="preserve"
   xmlns="http://www.w3.org/2000/svg">
    <path d="M 3.1758268 0 C 1.4257449 0 -5.0132687e-16 1.4257449 0 3.1758268 C 0 4.9259087 1.4257449 6.35 3.1758268 6.35 C 4.9259087 6.35 6.35 4.9259087 6.35 3.1758268 C 6.35 1.4257449 4.9259087 -5.0132687e-16 3.1758268 0 z M 3.1758268 0.60523437 C 3.2259818 0.60523437 3.2914047 0.6292595 3.3883203 0.73421875 C 3.4852362 0.83917804 3.5931411 1.0187032 3.6851497 1.2542904 C 3.7566787 1.4374398 3.8189633 1.6537391 3.8687044 1.8942513 L 2.4804687 1.8942513 C 2.5302111 1.6537244 2.5924908 1.437449 2.6640234 1.2542904 C 2.7560319 1.0187032 2.8639373 0.83917804 2.9608529 0.73421875 C 3.0577685 0.62925946 3.1256716 0.60523437 3.1758268 0.60523437 z M 4.1275 0.75736979 C 4.6838263 0.9755504 5.1449214 1.3799842 5.4363607 1.8942513 L 4.4879948 1.8942513 C 4.4294548 1.5775283 4.3490399 1.287453 4.2498698 1.0335286 C 4.2118486 0.93617564 4.171431 0.84410291 4.1275 0.75736979 z M 2.2216732 0.75902344 C 2.1780431 0.84530471 2.1370976 0.93675678 2.0993034 1.0335286 C 2.0001356 1.2874472 1.9205449 1.5775368 1.8620052 1.8942513 L 0.91529297 1.8942513 C 1.2062597 1.380818 1.666555 0.97745221 2.2216732 0.75902344 z M 0.66972656 2.4903906 L 0.82434245 2.4903906 L 1.7809766 2.4903906 C 1.7609438 2.7111356 1.7503841 2.940253 1.7503841 3.1758268 C 1.7503841 3.4109821 1.7610135 3.6394527 1.7809766 3.8596094 L 0.82434245 3.8596094 L 0.66889974 3.8596094 C 0.60997998 3.6418917 0.57794922 3.412573 0.57794922 3.1758268 C 0.57794922 2.938443 0.61049966 2.7086326 0.66972656 2.4903906 z M 2.3903451 2.4903906 L 3.9596549 2.4903906 C 3.98184 2.7090564 3.9943815 2.9388341 3.9943815 3.1758268 C 3.9943815 3.412239 3.9817363 3.6416835 3.9596549 3.8596094 L 2.3903451 3.8596094 C 2.3682638 3.6416835 2.3556185 3.412239 2.3556185 3.1758268 C 2.3556185 2.9388341 2.36816 2.7090564 2.3903451 2.4903906 z M 4.5690234 2.4903906 L 5.5273112 2.4903906 L 5.6819271 2.4903906 C 5.741154 2.7086326 5.7737044 2.938443 5.7737044 3.1758268 C 5.7737044 3.412573 5.7416737 3.6418917 5.6827539 3.8596094 L 5.5273112 3.8596094 L 4.5690234 3.8596094 C 4.5889865 3.6394527 4.5996159 3.4109821 4.5996159 3.1758268 C 4.5996159 2.940253 4.5890562 2.7111356 4.5690234 2.4903906 z M 0.91363932 4.4549219 L 1.8611784 4.4549219 C 1.9197452 4.7718792 1.9999547 5.0620899 2.0993034 5.3164714 C 2.1374325 5.4141007 2.1784257 5.5065093 2.2225 5.593457 C 1.6660047 5.374753 1.2046968 4.9698934 0.91363932 4.4549219 z M 2.4796419 4.4549219 L 3.8695312 4.4549219 C 3.8197382 4.6956967 3.756833 4.912165 3.6851497 5.0957096 C 3.5931411 5.3312968 3.4852359 5.5099951 3.3883203 5.6149544 C 3.2914047 5.7199137 3.225982 5.7439388 3.1758268 5.7439388 C 3.1256716 5.7439388 3.0577685 5.7199137 2.9608529 5.6149544 C 2.8639373 5.5099951 2.7560319 5.3312968 2.6640234 5.0957096 C 2.5923367 4.9121562 2.5294362 4.6957106 2.4796419 4.4549219 z M 4.4879948 4.4549219 L 5.4380143 4.4549219 C 5.1465347 4.9706403 4.6842504 5.3758036 4.1266732 5.5942839 C 4.170923 5.5070738 4.2116086 5.414439 4.2498698 5.3164714 C 4.3492062 5.0621212 4.4294298 4.7718336 4.4879948 4.4549219 z " />
</svg>
