<svg
   width="15"
   height="15"
   fill="currentColor"
   viewBox="0 0 6.35 6.35"
   xml:space="preserve"
   xmlns="http://www.w3.org/2000/svg">
    <path d="M 0.91611979 0 C 0.41343988 0 1.2533172e-16 0.41343988 0 0.91611979 L 0 5.4338802 C 0 5.9365602 0.41343988 6.35 0.91611979 6.35 L 5.4338802 6.35 C 5.9365602 6.35 6.35 5.9365602 6.35 5.4338802 L 6.35 0.91611979 C 6.35 0.41343988 5.9365602 1.2533172e-16 5.4338802 0 L 0.91611979 0 z M 0.91611979 0.56058594 L 5.4338802 0.56058594 C 5.635515 0.56058594 5.7894141 0.714485 5.7894141 0.91611979 L 5.7894141 5.4338802 C 5.7894141 5.635515 5.635515 5.7894141 5.4338802 5.7894141 L 0.91611979 5.7894141 C 0.714485 5.7894141 0.56058595 5.635515 0.56058594 5.4338802 L 0.56058594 0.91611979 C 0.56058594 0.714485 0.714485 0.56058594 0.91611979 0.56058594 z M 1.2848828 4.7418294 A 0.28045851 0.28045851 0 0 0 1.003763 5.023776 A 0.28045851 0.28045851 0 0 0 1.2848828 5.3024154 L 5.0642904 5.3024154 A 0.28045851 0.28045851 0 0 0 5.3454102 5.023776 A 0.28045851 0.28045851 0 0 0 5.0642904 4.7418294 L 1.2848828 4.7418294 z " />
</svg>
