<svg
   width="15"
   height="15"
   fill="currentColor"
   viewBox="0 0 6.35 6.35"
   xml:space="preserve"
   xmlns="http://www.w3.org/2000/svg">
    <path d="M 5.1626823 0.873125 A 0.28048656 0.28048656 0 0 0 4.8716406 1.1542448 L 4.8716406 1.4138672 L 4.0506055 1.4138672 C 3.371654 1.4138672 2.5885825 1.9564615 2.2853385 3.0881836 C 2.0374717 4.0132356 1.2583778 4.4359049 0.91446615 4.4359049 L 0.35966797 4.4359049 A 0.28045851 0.28045851 0 0 0 0.077721354 4.7145443 A 0.28045851 0.28045851 0 0 0 0.35966797 4.9964909 L 0.91446615 4.9964909 C 1.6245319 4.9964909 2.5175318 4.3860518 2.8260807 3.2345312 C 3.0792527 2.289681 3.6755793 1.9744531 4.0506055 1.9744531 L 4.8716406 1.9744531 L 4.8716406 2.1935612 A 0.28048656 0.28048656 0 0 0 5.0122005 2.4358203 A 0.28048656 0.28048656 0 0 0 5.2916667 2.4358203 L 6.1920768 1.9157487 A 0.28048656 0.28048656 0 0 0 6.1920768 1.4320573 L 5.2916667 0.91033203 A 0.28048656 0.28048656 0 0 0 5.1626823 0.873125 z M 0.35966797 1.3849284 A 0.28045851 0.28045851 0 0 0 0.077721354 1.6643945 A 0.28045851 0.28045851 0 0 0 0.35966797 1.9455143 L 0.91446615 1.9455143 C 1.1756823 1.9455143 1.6875023 2.1884015 2.0273698 2.7103255 C 2.1049387 2.496488 2.20017 2.3017184 2.3093164 2.1274154 C 1.9051585 1.6389503 1.3720578 1.3849284 0.91446615 1.3849284 L 0.35966797 1.3849284 z M 3.0493229 3.7033398 C 2.9677967 3.9095841 2.8694151 4.0982006 2.7574544 4.2680599 C 3.1260797 4.7376807 3.6102765 4.9667253 4.0506055 4.9667253 L 4.8716406 4.9667253 L 4.8716406 5.2255208 A 0.28048656 0.28048656 0 0 0 5.2916667 5.4702604 L 6.1920768 4.9485352 A 0.28048656 0.28048656 0 0 0 6.1920768 4.4640169 L 5.2916667 3.9447721 A 0.28048656 0.28048656 0 0 0 5.0122005 3.9447721 A 0.28048656 0.28048656 0 0 0 4.8716406 4.1870312 L 4.8716406 4.4044857 L 4.0506055 4.4044857 C 3.7621026 4.4044857 3.3427802 4.2189018 3.0493229 3.7033398 z " />
</svg>