<svg
   width="15"
   height="15"
   fill="currentColor"
   viewBox="0 0 6.35 6.35"
   xml:space="preserve"
   xmlns="http://www.w3.org/2000/svg"> 
    <path d="m 5.1359275,-2e-7 a 1.0938045,1.0938045 0 0 0 -1.093736,1.0937368 1.0938045,1.0938045 0 0 0 0.00225,0.062144 L 1.8784452,2.3049823 A 1.0938045,1.0938045 0 0 0 1.2140679,2.0812635 1.0938045,1.0938045 0 0 0 0.12033115,3.1750001 1.0938045,1.0938045 0 0 0 1.2140679,4.2687369 1.0938045,1.0938045 0 0 0 1.8773153,4.0450181 l 2.167135,1.1502314 a 1.0938045,1.0938045 0 0 0 -0.00225,0.061014 1.0938045,1.0938045 0 0 0 1.093736,1.0937367 A 1.0938045,1.0938045 0 0 0 6.2296689,5.2562631 1.0938045,1.0938045 0 0 0 5.1359316,4.1625264 1.0938045,1.0938045 0 0 0 4.4738144,4.3862452 L 2.3066748,3.2360145 a 1.0938045,1.0938045 0 0 0 0.00225,-0.061015 1.0938045,1.0938045 0 0 0 -0.00225,-0.061014 L 4.4738103,1.9648844 A 1.0938045,1.0938045 0 0 0 5.1359275,2.1874734 1.0938045,1.0938045 0 0 0 6.2296648,1.0937366 1.0938045,1.0938045 0 0 0 5.1359275,-2e-7 Z" />
</svg>
