<svg
   width="15"
   height="15"
   fill="currentColor"
   viewBox="0 0 6.35 6.35"
   xml:space="preserve"
   xmlns="http://www.w3.org/2000/svg">   
 <path d="M 3.1386198 0 C 1.96063 0.0131561 0.86998164 0.67914416 0.32576823 1.7718815 C 0.099257624 2.2266879 0 2.6559276 0 3.1791341 C -3.1332837e-17 3.6997582 0.091449568 4.1011706 0.31667318 4.5657161 C 0.62429151 5.2002087 1.1107697 5.692941 1.74625 6.0143099 C 2.0877097 6.1869888 2.4058107 6.2840888 2.7938346 6.3342904 C 2.8958574 6.3474903 3.0579731 6.3522832 3.310599 6.3491732 C 3.6324036 6.3452152 3.6922096 6.3407956 3.7901562 6.3144466 C 3.9276579 6.2774578 4.0108146 6.2298139 4.0985612 6.1383333 C 4.2017328 6.0307674 4.2308529 5.9615263 4.2308529 5.817526 C 4.2308529 5.6707205 4.198202 5.5913192 4.062181 5.4082487 C 3.8935286 5.1812602 3.8651942 5.0848843 3.9307161 4.9510156 C 3.979007 4.8523487 4.0537826 4.7662727 4.1200586 4.7335612 C 4.1670488 4.7103678 4.2232778 4.7057393 4.5772917 4.6980078 C 4.9735991 4.6893494 4.9827742 4.6886862 5.1287826 4.645918 C 5.7265025 4.4708337 6.0925556 4.190132 6.2491276 3.786849 C 6.3254612 3.5902381 6.3503913 3.4371653 6.35 3.1650781 C 6.3494813 2.803269 6.3044043 2.5264924 6.1895964 2.1770247 C 5.8356427 1.0996197 4.9105128 0.28109918 3.7984245 0.061184896 C 3.5771601 0.017430123 3.3567661 -0.0024363148 3.1386198 0 z M 3.8025586 1.2501562 C 3.9427641 1.2495622 4.076153 1.3268579 4.1498242 1.4667839 C 4.1802922 1.5246527 4.1875631 1.5569195 4.1878581 1.643724 C 4.188171 1.7366098 4.1824983 1.7599883 4.1440365 1.8281055 C 4.0913535 1.9214743 4.0079321 1.9889706 3.9092187 2.0182747 C 3.8219819 2.0441727 3.7692038 2.0445499 3.6876302 2.0191016 C 3.5483807 1.9756692 3.4454918 1.8612191 3.4156055 1.7173112 C 3.3826507 1.5586403 3.4565375 1.3934607 3.5983333 1.3088607 C 3.663984 1.2696913 3.7340862 1.2504464 3.8025586 1.2501562 z M 2.5383464 1.2518099 C 2.6896081 1.2488252 2.8339076 1.3313267 2.9004948 1.4684375 C 2.9426105 1.5551462 2.9456511 1.7070629 2.9071094 1.7966862 C 2.8725994 1.8768829 2.7769786 1.9745796 2.7020573 2.0058724 C 2.6308186 2.0356274 2.5124014 2.0422092 2.4473958 2.0207552 C 2.2644863 1.9603899 2.157181 1.8211154 2.157181 1.643724 C 2.157181 1.476544 2.2768236 1.3138304 2.4333398 1.2683464 C 2.4681622 1.258227 2.5034397 1.2524987 2.5383464 1.2518099 z M 4.6980078 2.2754167 C 4.7585001 2.2734071 4.8208263 2.2858039 4.8807357 2.3151042 C 5.1717003 2.457408 5.1731931 2.8707308 4.8832161 3.0187305 C 4.8101732 3.0560154 4.6615157 3.0670998 4.589694 3.0402279 C 4.4124884 2.9739288 4.3219596 2.844269 4.3226302 2.6574089 C 4.3234035 2.4412283 4.5003998 2.2819813 4.6980078 2.2754167 z M 1.6230534 2.2778971 C 1.6298833 2.2776169 1.6367893 2.2778572 1.643724 2.2778971 C 1.8110517 2.278862 1.9584053 2.3838715 2.0100065 2.5391732 C 2.0383555 2.6244938 2.0307775 2.7603603 1.9942969 2.8326953 C 1.9599359 2.9008199 1.8770656 2.9849015 1.8099154 3.0195573 C 1.7389104 3.0562033 1.590156 3.0668965 1.5188737 3.0402279 C 1.3417605 2.9739634 1.2515113 2.8445406 1.2518099 2.6574089 C 1.2521445 2.448038 1.4113273 2.2865843 1.6230534 2.2778971 z " />
</svg>
